<svg width="20" height="20" viewBox="0 0 20 20" fill="none" xmlns="http://www.w3.org/2000/svg">
<path d="M9.36368 1.83368C9.59909 1.26767 10.4009 1.26768 10.6363 1.83369L12.5727 6.48918C12.6719 6.7278 12.8963 6.89083 13.1539 6.91149L18.1799 7.31441C18.791 7.36341 19.0388 8.12597 18.5732 8.52475L14.7439 11.805C14.5477 11.9731 14.4619 12.2369 14.5219 12.4882L15.6918 17.3927C15.8341 17.9891 15.1853 18.4603 14.6623 18.1408L10.3593 15.5126C10.1388 15.3779 9.86134 15.3779 9.64084 15.5126L5.33784 18.1408C4.8147 18.4603 4.16602 17.9891 4.30825 17.3927L5.47816 12.4882C5.53813 12.2369 5.45241 11.9731 5.25614 11.805L1.42686 8.52475C0.9613 8.12597 1.20908 7.36341 1.82013 7.31441L6.84613 6.91149C7.10373 6.89083 7.32813 6.7278 7.42738 6.48918L9.36368 1.83368Z" fill="#636AE8"/>
</svg>
